<svg width="144" height="144" viewBox="0 0 144 144" fill="none" xmlns="http://www.w3.org/2000/svg">
<mask id="mask0_171_648" style="mask-type:luminance" maskUnits="userSpaceOnUse" x="0" y="0" width="144" height="144">
<path d="M0 0H144V144H0V0Z" fill="white"/>
</mask>
<g mask="url(#mask0_171_648)">
<path d="M135.398 89.0275C136.92 83.345 144.117 78.2138 144.117 72.0541C144.117 65.8908 136.92 60.7596 135.398 55.0752C133.827 49.1977 137.453 41.1612 134.471 36.0133C131.453 30.7893 122.651 29.9298 118.415 25.6897C114.175 21.4533 113.313 12.6556 108.095 9.63335C102.943 6.65562 94.9106 10.2775 89.0294 8.70698C83.345 7.18842 78.2157 -0.0126953 72.0541 -0.0126953C65.8908 -0.0126953 60.7596 7.18842 55.077 8.70698C49.1977 10.2775 41.1612 6.65562 36.0133 9.63335C30.7911 12.6556 29.9298 21.4533 25.6934 25.6897C21.4533 29.9298 12.6519 30.7911 9.63335 36.0133C6.65562 41.1612 10.2775 49.1977 8.70698 55.077C7.18842 60.7596 -0.0126953 65.8908 -0.0126953 72.0541C-0.0126953 78.2138 7.18842 83.345 8.70698 89.0294C10.2775 94.9069 6.65562 102.943 9.63335 108.091C12.6519 113.313 21.4533 114.175 25.6897 118.415C29.9298 122.653 30.7911 131.449 36.0133 134.473C41.1612 137.453 49.1977 133.827 55.077 135.398C60.7596 136.916 65.8908 144.119 72.0541 144.119C78.2157 144.119 83.345 136.916 89.0294 135.398C94.9106 133.827 102.943 137.453 108.091 134.473C113.313 131.449 114.175 122.653 118.415 118.415C122.651 114.175 131.453 113.315 134.471 108.095C137.453 102.945 133.827 94.9069 135.398 89.0275Z" fill="#4C6F57"/>
</g>
<path d="M65.9925 60.3935L67.1361 59.3316C68.0365 58.485 68.7995 57.8316 69.4232 57.3712L69.7054 57.1261L69.9505 56.8365C70.4146 56.3223 70.6206 55.8619 70.5668 55.4553C70.5111 55.1843 70.6206 54.8966 70.8935 54.594C71.4078 54.0797 71.7066 53.4949 71.792 52.8415C71.792 52.6243 71.8849 52.3792 72.0742 52.1063C72.6182 51.2115 73.0804 50.1367 73.4628 48.8836L73.8712 47.1682L74.2351 45.4529C74.482 44.3947 74.4282 43.4294 74.0717 42.5568L73.4257 40.8415L72.6906 39.2078C71.844 37.55 70.6448 36.4751 69.0965 35.985C68.5266 35.7975 68.0235 35.8124 67.5891 36.0296C67.1528 36.219 66.6757 36.49 66.1559 36.8464L64.849 37.8192C64.5519 38.068 64.4573 38.3539 64.5668 38.6806C64.784 39.36 64.9195 40.1769 64.9752 41.1311L65.0123 42.3489V46.2697L64.9752 48.9207C64.9455 51.6144 64.836 54.3619 64.6485 57.1633C64.5389 58.6336 64.5779 60.0779 64.7673 61.4925L65.9925 60.3935ZM79.2549 78.7128L79.1732 77.5692L79.0099 76.4702L78.8465 75.3266C78.7128 74.4857 78.4826 73.7784 78.1559 73.2029C77.6658 72.2524 77.1089 71.0698 76.4851 69.6534C75.5049 67.4516 74.1423 65.792 72.401 64.6781C71.1237 63.8613 69.8855 63.6292 68.6881 63.9801L67.5445 64.4702L66.4455 65.042C65.4653 65.5321 65.029 66.3341 65.1386 67.4479C65.3019 69.0277 65.4096 70.6466 65.4653 72.3044C65.5191 74.1014 65.5191 75.8167 65.4653 77.4504L65.3019 80.1385L65.1386 82.8786L65.094 84.9949L64.9307 87.0816L64.7302 88.3068L64.4406 89.5246L63.5049 95.3613C63.2859 96.8074 62.9053 98.4801 62.3613 100.381C62.198 100.981 62.443 101.226 63.0965 101.116C63.3675 101.062 63.7221 100.927 64.1584 100.708L64.6856 100.463L65.2203 100.262C66.388 99.9058 67.5445 99.1298 68.6881 97.9306L71.1386 95.6509L73.5816 93.3638L74.5247 92.5098C74.8514 92.1534 75.0965 91.8266 75.2599 91.5296C75.6404 90.7685 76.3217 89.7214 77.3019 88.3885C77.6287 87.9541 77.8997 87.503 78.1188 87.037C79.2029 84.6459 79.5816 82.1843 79.2549 79.6484V78.7128ZM50.6064 86.9182V82.7152L50.6881 79.4479V75.037L50.896 69.1261L51.1411 65.1682L51.4232 61.1657L51.7945 55.0841L51.8316 53.985V43.2103C51.8316 41.662 51.9133 40.2604 52.0767 39.0073C52.2401 37.6466 52.9622 36.8724 54.245 36.6831L57.0965 36.2746C58.1844 36.167 59.1497 36.1243 59.9925 36.1484H60.401L60.7722 36.193C61.5037 36.49 62.2518 36.2858 63.0148 35.5766C64.292 34.4089 66.1819 33.5921 68.6881 33.1261C69.4752 32.9628 70.3849 33.0723 71.4208 33.4529C72.5643 33.8891 73.5167 34.4219 74.2797 35.0494C75.1503 35.7586 75.7889 36.6274 76.1955 37.6558L76.6856 39.0444L77.1757 40.4776C77.586 41.5618 77.9795 42.4584 78.3564 43.1657C78.8205 43.9826 78.9727 44.9089 78.8094 45.943L78.646 47.3316C78.4826 50.0494 77.7475 52.2251 76.4406 53.8588L76.1138 54.3935C76.0581 54.503 76.047 54.6125 76.0767 54.7202C76.1305 54.8836 76.2512 54.9393 76.4406 54.8836C77.2314 54.6125 78.2116 54.6237 79.3811 54.9207C80.6324 55.1936 81.6943 55.4813 82.5668 55.7821C83.2982 56.0253 84.0315 56.5822 84.7648 57.4529C85.1992 57.969 85.6355 58.5519 86.0717 59.2053C87.0222 60.5921 87.8502 61.5853 88.5594 62.1831C88.7766 62.3761 88.9938 62.6639 89.2128 63.0444C90.167 64.6484 90.917 66.3619 91.4628 68.1831L92.2351 70.589C92.5061 71.5154 92.6695 72.3322 92.7252 73.0395L92.8886 73.6113C93.2394 74.4838 93.5662 75.5568 93.8688 76.8341L94.2772 78.4677L94.6411 80.1014C94.8341 80.8885 94.875 81.6645 94.7673 82.4256C94.4406 84.386 94.0321 85.951 93.542 87.1187C93.349 87.6088 93.2246 88.0599 93.1708 88.4702C93.0909 89.2573 92.9146 90.115 92.6435 91.0395L91.7896 93.5643L91.6633 93.7722C91.6076 93.8279 91.5408 93.8539 91.4628 93.8539L91.2995 93.7276L91.1361 93.5271L91.0544 93.3192L90.9727 93.1187C90.8094 92.8774 90.646 92.8644 90.4826 93.0816L89.9109 93.7722L89.4579 94.4628C89.185 94.9529 88.7914 95.5135 88.2772 96.141L87.6237 96.9133L87.0148 97.693C86.5786 98.2091 86.1423 98.4504 85.7079 98.4207C84.9449 98.3427 84.1132 98.7103 83.2128 99.5271C81.8799 100.726 80.25 101.746 78.3193 102.587C74.9183 104.111 71.8552 104.859 69.1336 104.829L66.8911 104.792C66.0185 104.762 65.2574 104.681 64.6039 104.547C64.1175 104.462 63.5606 104.421 62.9331 104.421L61.1807 104.502C60.7685 104.532 60.3063 104.736 59.792 105.119C58.7859 105.826 57.6423 106.301 56.3613 106.544C55.6819 106.682 55.2735 106.411 55.1361 105.728C55.0266 105.018 54.7685 104.543 54.3638 104.302L54.245 104.176L54.2005 104.012C54.2302 103.303 53.8366 102.884 53.0198 102.75C52.8564 102.72 52.6782 102.611 52.4851 102.423L52.0767 101.933C51.6163 101.28 51.2896 100.587 51.0965 99.8539C50.6602 98.1961 50.4022 96.4417 50.3242 94.589L50.6064 86.9182Z" fill="white"/>
</svg>
