<svg width="432" height="141" viewBox="0 0 432 141" fill="none" xmlns="http://www.w3.org/2000/svg">
<path d="M30.7184 74.8003L32.0475 73.1423C33.0613 71.8216 33.9556 70.7859 34.7082 70.0386L35.034 69.6464L35.3059 69.2202C35.8303 68.4348 35.9902 67.7713 35.7742 67.2314C35.6052 66.8968 35.6766 66.5026 36.0106 66.0453C36.5685 65.2546 36.8021 64.4091 36.7226 63.5073C36.6615 63.2405 36.7335 62.8994 36.9521 62.4924C37.4458 61.1695 37.7765 59.6387 37.9353 57.9119L37.9978 55.5625L38.0157 53.2201C38.0527 51.768 37.6834 50.5081 36.9191 49.4389L35.4572 47.2898L33.8992 45.3261C32.207 43.3306 30.1762 42.176 27.7981 41.8743C26.9063 41.7612 26.1893 41.9073 25.6336 42.3042C25.0662 42.6498 24.4578 43.119 23.8283 43.6978L22.2482 45.2682C21.9001 45.6639 21.8557 46.0751 22.1103 46.4812C22.6401 47.3326 23.0784 48.3899 23.4318 49.631L23.8874 51.2173L25.0713 56.3883L25.7809 59.8909C26.5626 63.4564 27.247 67.1012 27.8253 70.8374C28.0934 72.8152 28.586 74.7146 29.319 76.5545L30.7184 74.8003ZM55.2783 95.9414L54.8063 94.4853L54.2453 93.0434L53.6303 91.5675C53.2031 90.5083 52.6551 89.6279 52.0111 88.933C51.0339 87.7913 49.8749 86.3596 48.5339 84.6378C46.468 81.9681 44.0271 80.0813 41.1937 79.0014C39.1003 78.229 37.2722 78.2118 35.6848 78.9433L34.1771 79.8215L32.7516 80.8568C31.4937 81.7165 31.1096 82.8624 31.6038 84.315C32.3145 86.3605 32.9702 88.4679 33.5597 90.6391C34.1938 93.0052 34.7153 95.2829 35.1194 97.4517L35.7047 101.017L36.2642 104.671L36.868 107.509L37.2654 110.254L37.3293 111.945L37.2948 113.609L37.7246 121.538C37.8226 123.479 37.7819 125.772 37.5888 128.408C37.5269 129.247 37.9586 129.519 38.8836 129.222C39.2436 129.08 39.716 128.824 40.2764 128.447L40.9587 127.998L41.6504 127.59C43.2378 126.859 44.665 125.579 45.9454 123.759L48.7254 120.168L51.5594 116.611L52.633 115.249C52.9952 114.713 53.2553 114.235 53.4111 113.807C53.7156 112.716 54.3764 111.164 55.3934 109.152C55.7074 108.506 55.9523 107.861 56.1479 107.203C56.9662 103.818 56.7809 100.487 55.5695 97.2137L55.2783 95.9414ZM16.678 113.321L15.4095 107.781L14.5566 103.45L13.2223 97.6225L11.7044 89.7824L10.8675 84.5135L10.0564 79.1555L8.74946 71.0266L8.50971 69.576L5.25864 55.3763C4.78884 53.3243 4.46391 51.4513 4.29266 49.7452C4.1202 47.933 4.92358 46.7522 6.71629 46.2114L10.6839 44.9838C12.1906 44.6055 13.5601 44.3341 14.7901 44.1594L15.3693 44.0671L15.9228 44.064C17.048 44.2889 18.0539 43.8415 18.9429 42.7321C20.4308 40.9106 22.9021 39.4003 26.3544 38.1909C27.4301 37.7962 28.7686 37.7425 30.3787 38.0177C32.1365 38.3331 33.6552 38.8143 34.9125 39.4647C36.3739 40.1996 37.5504 41.2032 38.4643 42.4719L39.6 44.2051L40.7451 45.9794C41.6286 47.3168 42.4668 48.4062 43.2463 49.239C44.1438 50.2339 44.6349 51.4211 44.7064 52.7922L44.9064 54.6745C45.4835 58.3045 45.0942 61.3441 43.7161 63.7968L43.4303 64.5654C43.3741 64.7233 43.3735 64.8722 43.4445 65.0311C43.5853 65.2426 43.7777 65.2758 44.0262 65.1511C45.0714 64.623 46.4884 64.4079 48.2684 64.5177C50.1329 64.5929 51.7347 64.7312 53.0763 64.9428C54.1874 65.1061 55.4147 65.6762 56.7472 66.6549C57.5283 67.243 58.3283 67.9131 59.1447 68.655C60.9241 70.275 62.4167 71.3984 63.6112 72.0269C63.9572 72.227 64.3537 72.5467 64.8006 72.9859C66.6482 74.9034 68.239 77.0108 69.5684 79.2874L71.4058 82.2699C72.0664 83.4408 72.5605 84.4893 72.861 85.3985L73.2529 86.1017C74.0173 87.171 74.8005 88.5243 75.6114 90.1498L76.7332 92.2255L77.7119 94.2815C78.2411 95.2818 78.5428 96.2972 78.5948 97.331C78.7389 99.9773 78.6318 102.132 78.2759 103.805C78.1542 104.484 78.1099 105.097 78.1453 105.655C78.2624 106.721 78.2646 107.89 78.1677 109.182L77.7258 112.698L77.6133 113.013C77.5383 113.089 77.4316 113.127 77.3202 113.145L77.0599 113.016L76.7807 112.806L76.5813 112.54L76.3912 112.315C76.071 112.025 75.8435 112.04 75.7041 112.339L75.0736 113.418L74.6566 114.42C74.417 115.139 74.0181 115.968 73.4708 116.906L72.77 118.081L72.1138 119.249C71.6474 120.036 71.0964 120.453 70.4586 120.491C69.3323 120.564 68.2532 121.247 67.2323 122.536C65.6916 124.43 63.649 126.149 61.1133 127.68C56.6971 130.478 52.545 132.161 48.6457 132.729L45.4282 133.199C44.1736 133.367 43.045 133.43 42.0559 133.396C41.3394 133.393 40.548 133.466 39.6568 133.608L37.1453 134.136C36.5485 134.252 35.9659 134.632 35.3728 135.269C34.125 136.425 32.622 137.324 30.8592 137.945C29.9166 138.265 29.2528 137.988 28.8679 137.113C28.4981 136.205 27.9873 135.637 27.3217 135.403L27.1059 135.267L27.0144 135.069C26.8229 134.132 26.1414 133.677 24.9454 133.697C24.6862 133.675 24.4083 133.57 24.0846 133.367L23.3105 132.809C22.4606 132.073 21.7925 131.222 21.2997 130.28C20.1755 128.194 19.2683 125.946 18.5978 123.522L16.678 113.321Z" fill="#4C6F57"/>
<path d="M88.1823 99.1355C87.9955 97.0516 87.5927 94.6477 86.9797 91.9017L86.1758 88.1107L85.2414 84.3441C83.6026 77.6472 82.6873 72.3514 82.4845 68.4588L82.2768 67.4381L82.0256 66.4256C81.7927 64.7528 82.516 63.9504 84.2086 64.0264C84.6791 64.0869 85.3195 64.0521 86.1407 63.92L88.1498 63.7568C89.6993 63.6689 91.0019 64.0084 92.0442 64.7674C93.6591 65.9067 94.7257 67.0849 95.2389 68.2816L97.3153 72.9792L99.2946 77.6526C100.721 81.2002 101.775 84.4362 102.476 87.3563C104.507 95.9082 107.037 102.757 110.075 107.889C110.7 108.938 111.273 110.282 111.807 111.931L112.44 113.931L113.17 115.956C114.109 118.271 113.27 120.536 110.662 122.739C109.862 123.46 108.501 123.757 106.557 123.632C104.67 123.508 103.018 123.043 101.608 122.225C99.614 121.072 97.3669 118.716 94.8403 115.14C92.7506 112.225 90.5293 106.897 88.1823 99.1355ZM86.7965 55.9155C84.9774 56.202 83.2085 55.7271 81.479 54.4926C79.7787 53.2844 78.8393 51.8388 78.6693 50.1437C78.428 48.0699 79.219 46.8522 81.0398 46.4806L82.5198 46.2043C83.0966 46.0966 83.6039 46.0761 84.05 46.1305C85.1752 46.2595 86.0508 46.8059 86.6854 47.7574L88.2125 50.0574L89.6726 52.4546C89.9874 52.9891 89.8008 53.6596 89.1236 54.464C88.4355 55.2705 87.6671 55.753 86.7965 55.9155Z" fill="#4C6F57"/>
<path d="M166.742 85.1181C166.624 92.4476 165.869 99.1037 164.476 105.086L164.294 105.595L164.028 106.192C163.943 106.633 164.122 106.946 164.575 107.12C164.919 107.237 165.219 107.127 165.462 106.781L165.781 106.265L166.062 105.834L166.481 105.396L167.002 105.077L167.106 105.695L167.111 106.236C165.724 110.075 163.314 113.158 159.89 115.483C156.107 118.015 152.081 118.936 147.79 118.249C130.556 115.505 120.39 105.685 117.281 88.791C114.483 73.3781 112.751 58.439 112.074 43.9638C112.036 42.5823 111.031 42.0221 109.069 42.293L105.077 42.8383L101.081 43.3423C97.998 43.7872 95.3312 44.0124 93.0576 44.019L92.1812 43.9824L91.2133 43.9507C90.4664 43.824 90.0582 43.5129 89.9774 43.0179C89.8795 42.5862 90.1323 42.2191 90.7491 41.9366L91.6402 41.6395L92.4856 41.3448C98.9352 39.566 104.433 38.4204 108.982 37.9287C111.132 37.7102 112.178 36.6143 112.12 34.6409C111.814 24.5046 111.909 15.6992 112.402 8.20414L112.396 6.66493L112.332 5.00395C112.427 3.81302 113.002 3.19992 114.044 3.16526L116.92 2.97056C118.109 2.90729 119.086 2.91769 119.862 2.98043C122.085 3.17415 123.822 4.05952 125.074 5.65723C126.809 7.87418 128.18 10.6099 129.198 13.8844L130.345 18.2755L131.354 22.674C132.347 26.7821 133.212 30.7513 133.937 34.5616C134.167 35.7976 135.094 36.3724 136.717 36.286L141.472 36.0329L146.219 35.697C149.849 35.587 153.024 35.7509 155.729 36.1894L156.381 36.2796L157.071 36.2845C157.596 36.371 157.996 36.5993 158.283 36.9689L157 37.4949L155.751 37.8942L138.168 40.4945C136.323 40.7903 135.476 41.678 135.615 43.1685L137.859 69.0964L140.235 94.9756C140.435 96.8582 140.88 99.1646 141.572 101.895L142.405 105.387L143.279 108.836L143.531 109.571L143.917 110.258C145.598 113.851 147.7 114.228 150.225 111.379C158.044 102.391 162.574 92.4968 163.803 81.6962L163.775 80.9071L163.842 80.1546C163.94 79.5981 164.245 79.3009 164.771 79.273C165.439 79.2998 165.786 79.5726 165.812 80.0913L165.695 80.8049L165.765 81.5502L166.313 83.4766L166.742 85.1181Z" fill="#4C6F57"/>
<path d="M194.858 59.059C195.18 57.9364 195.508 56.511 195.843 54.7931L196.543 50.4589C197.134 46.9231 198.143 44.1475 199.593 42.1204L199.791 41.7761L199.852 41.4391C199.918 38.2128 201.2 36.3822 203.723 35.9359C205.239 35.7201 207.029 36.2095 209.082 37.4047C211.067 38.6139 212.38 39.9212 213.009 41.3273L213.548 42.6338L214.148 44.104C214.46 45.2035 214.655 46.2884 214.733 47.369C213.755 51.4571 211.04 54.7611 206.564 57.2716C205.273 58.0387 203.691 58.6543 201.793 59.1093L199.17 59.707L196.543 60.2632C195.875 60.4132 195.413 60.4064 195.156 60.2531C194.741 60.1395 194.645 59.7378 194.858 59.059ZM238.57 69.8887C237.787 69.4294 237.119 69.444 236.585 69.9102L235.912 70.6134L235.335 71.3531L232.632 74.5417L229.979 77.7693C227.86 80.1656 225.769 81.9972 223.706 83.2745L221.352 84.7758L218.941 86.1549C216.965 87.1252 215.134 87.4306 213.437 87.0719C208.937 86.1417 204.832 83.7618 201.12 79.9217C197.461 76.1414 195.318 72.1557 194.68 67.9548C194.233 65.1728 195.258 63.6688 197.767 63.4526C206.661 62.711 214.143 59.4991 220.24 53.8364C222.59 51.6886 223.962 49.0815 224.355 46.0256C224.781 43.0618 224.126 40.6454 222.38 38.7873C216.678 32.9456 210.259 30.0309 203.121 30.0434L202.194 30.009L201.493 29.921L200.374 29.8133L197.37 29.8053L194.424 29.9194C192.228 30.1503 190.473 30.9002 189.183 32.1575C186.616 34.713 184.055 38.0506 181.485 42.1604C173.132 55.5146 170.185 67.1436 172.666 77.0462C175.662 89.2369 181.468 97.7745 190.094 102.658C195.325 105.584 200.84 106.742 206.641 106.164C212.374 105.589 216.889 103.484 220.185 99.8568C227.928 91.1866 233.93 82.1913 238.204 72.8702L238.747 72.2574L239.324 71.5176C239.663 70.9469 239.416 70.4072 238.57 69.8887Z" fill="#4C6F57"/>
<path d="M276.997 27.6746C276.447 21.4587 275.125 16.2391 273.009 12.0376C271.736 9.45052 269.807 7.64591 267.233 6.62316C264.589 5.58344 261.867 5.53363 259.077 6.48343C256.484 7.34995 253.634 9.13297 250.517 11.8434L249.205 12.9104L247.942 14.0162C247.079 14.8929 246.617 15.6856 246.567 16.3731L246.44 18.4549L246.264 20.4979C246.165 22.1424 246.27 23.527 246.558 24.6734C247.018 26.7028 247.323 29.28 247.499 32.4244L247.717 36.272L248.029 40.1561C248.161 41.3421 247.547 42.0808 246.186 42.3723C243.383 42.9389 241.26 43.5933 239.816 44.3354L239.51 44.4764L239.254 44.6563C239.018 44.8143 238.978 44.9928 239.122 45.2029C239.155 45.3152 239.287 45.3911 239.507 45.4311L240.111 45.5644C241.412 45.8571 243.048 45.7167 245.03 45.1323C247.036 44.5569 248.135 45.2548 248.317 47.2369C248.579 49.8268 248.799 52.834 248.965 56.2487L249.248 65.2388C249.542 72.755 250.06 78.7548 250.815 83.2477L252.144 89.2763C252.657 91.6347 253.024 93.6483 253.246 95.317C253.485 97.2961 254.272 99.4115 255.605 101.663L257.414 104.512L259.314 107.356C259.697 107.937 260.319 108.391 261.167 108.708C263.424 109.499 266.778 110.604 271.254 112.022L271.537 112.131L271.857 112.155C272.061 112.144 272.253 112.009 272.412 111.751C274.308 108.63 274.921 105.287 274.264 101.733L273.602 98.4903C273.361 97.2375 273.217 96.1663 273.169 95.2767C273.125 92.2081 272.845 88.3016 272.315 83.5371L271.738 77.7584L271.197 71.8947C270.936 68.0702 270.375 63.4629 269.516 58.0834L268.47 51.1681L267.333 44.2577C267.113 42.8586 267.685 42.0288 269.059 41.7574L271.65 41.2437L274.283 40.6863L274.818 40.5743L275.403 40.5012C275.846 40.3734 276.066 40.1644 276.074 39.8839C276.132 39.528 275.933 39.2171 275.489 38.961L274.881 38.7864L274.315 38.568C273.56 38.2769 272.64 38.1607 271.553 38.2195L270.195 38.2929L268.751 38.4126C267.481 38.4605 266.716 37.9313 266.467 36.8347C264.023 27.09 262.932 19.6999 263.195 14.6435L263.209 13.8127L263.322 13.0597C263.509 12.4997 263.901 12.188 264.509 12.1239L265.502 12.0288L266.592 12.0113C267.388 12.1342 267.973 12.559 268.347 13.2858L269.307 15.3088L270.395 17.242C271.075 18.4502 271.608 19.9153 271.982 21.638L272.512 23.9333L272.91 26.2772C273.682 30.0846 275.166 32.8677 277.364 34.6266L277.712 34.9398L277.923 35.2604L277.949 34.5535C278.072 33.665 277.965 32.5088 277.629 31.0848L277.247 29.4041L276.997 27.6746Z" fill="#4C6F57"/>
<path d="M287.189 68.2406C287.018 65.2304 287.314 61.5075 288.1 57.0723L289.191 51.2566L290.329 45.4422C290.364 45.1116 290.331 44.7272 290.231 44.2788L289.993 43.1531C289.77 42.235 289.961 41.4525 290.541 40.805C291.469 39.8663 292.617 39.2652 293.998 38.9917C295.179 38.7543 296.35 38.8068 297.522 39.1702C300.338 39.9928 301.949 42.0263 302.367 45.2712L303.489 52.8465L304.66 60.3817C305.582 66.4074 305.991 71.5072 305.877 75.6704C305.764 80.4554 306.318 86.0463 307.552 92.4639C308.314 96.1637 310.316 98.6328 313.558 99.8814C316.215 100.928 318.758 100.592 321.212 98.8868C323.619 97.1902 324.887 94.8616 324.993 91.9004C325.095 88.0892 325.355 83.7434 325.785 78.8634L327.042 65.8389L328.315 53.644L329.684 41.3688C329.741 40.4066 330.204 39.8076 331.049 39.5818C333.489 38.9018 336.081 39.169 338.825 40.373C341.809 41.6976 343.502 43.7126 343.905 46.3975L344.051 48.8058L344.288 51.2582C344.523 53.1507 345.259 54.6424 346.497 55.7538C346.676 55.9245 346.758 56.248 346.741 56.7139L346.702 57.7907C346.373 62.4559 346.485 68.3871 347.04 75.5843L347.79 84.4761L348.308 93.3617L348.506 99.5025L348.517 105.68C348.353 110.256 347.744 114.302 346.689 117.818C346.055 119.957 344.128 122.195 340.919 124.543C339.297 125.743 337.769 126.261 336.357 126.119C335.768 126.02 335.136 125.837 334.472 125.571L333.464 125.17L332.414 124.644L331.366 124.077L330.319 123.468C325.797 120.692 323.693 115.557 323.995 108.082C324.064 106.157 323.917 105.075 323.554 104.837C323.216 104.558 322.083 104.735 320.144 105.366C315.501 106.899 310.982 106.279 306.599 103.507C305.6 102.847 304.381 102.193 302.953 101.542L299.112 99.8214C294.142 97.5309 290.831 93.99 289.18 89.1882C287.495 84.3337 286.828 77.351 287.189 68.2406Z" fill="#4C6F57"/>
<path d="M367.224 46.5295C367.033 43.1718 367.335 38.6875 368.126 33.0971L369.146 26.3191C369.515 23.688 369.76 21.4009 369.861 19.4355C369.932 18.3608 370.542 17.6478 371.691 17.2861C372.619 17.0015 373.576 16.9995 374.571 17.291C378.212 18.3904 380.913 20.1162 382.666 22.4574C385.081 25.6261 386.745 29.5702 387.636 34.2879C387.924 35.9499 388.181 38.0456 388.419 40.576L388.703 43.6706L389.072 46.813C389.362 49.3888 389.523 52.3497 389.558 55.6959L389.414 64.5738C389.297 67.618 388.751 71.9597 387.784 77.6201L386.654 84.1408C386.292 86.5855 386.068 88.7703 385.971 90.6945C385.707 97.1026 384.797 104.252 383.253 112.134C382.83 114.283 381.484 116.209 379.226 117.901C376.963 119.53 374.675 120.265 372.351 120.093C371.814 120.053 371.351 119.728 370.96 119.118C369.426 116.617 368.589 114.343 368.43 112.286L367.853 105.265L367.146 98.1936C366.63 92.621 366.344 87.9375 366.264 84.1311C365.997 69.8855 366.317 57.3448 367.224 46.5295Z" fill="#4C6F57"/>
<path d="M404.394 61.7998C404.328 58.4356 404.793 53.9586 405.785 48.3893L407.048 41.6384C407.511 39.0172 407.838 36.7364 408.011 34.7732C408.121 33.7003 408.753 33.0045 409.909 32.6757C410.841 32.4177 411.792 32.4432 412.771 32.7634C416.348 33.9677 418.969 35.7716 420.625 38.1638C422.908 41.4029 424.416 45.396 425.129 50.1408C425.354 51.8115 425.533 53.9153 425.676 56.4533L425.844 59.557L426.096 62.7109C426.288 65.2958 426.341 68.2623 426.252 71.6105L425.782 80.487C425.555 83.5288 424.852 87.8561 423.683 93.4905L422.32 99.9808C421.871 102.416 421.568 104.595 421.401 106.517C420.903 112.919 419.736 120.045 417.912 127.885C417.413 130.023 416.004 131.91 413.698 133.538C411.39 135.103 409.089 135.772 406.785 135.533C406.254 135.478 405.805 135.14 405.44 134.518C404.007 131.972 403.259 129.674 403.176 127.611L402.861 120.572L402.418 113.478C402.111 107.888 401.998 103.195 402.059 99.3855C402.317 85.1278 403.096 72.5924 404.394 61.7998Z" fill="#4C6F57"/>
</svg>
