<svg width="193" height="90" viewBox="0 0 193 90" fill="none" xmlns="http://www.w3.org/2000/svg">
<path d="M47 2H62V19.2H52C46.477 19.2 42 23.0503 42 27.8V36.4H62L56.7825 53.6H41.1305V88H20.2609V53.6H2V36.5703H22V23.5C22 11.6259 33.193 2 47 2Z" stroke="#799A84" stroke-width="4" stroke-linecap="round" stroke-linejoin="round"/>
<path d="M104 21C104 12.1634 111.79 5 121.4 5H173.6C183.21 5 191 12.1634 191 21V69C191 77.8364 183.21 85 173.6 85H121.4C111.79 85 104 77.8364 104 69V21Z" stroke="#799A84" stroke-width="4" stroke-linecap="round" stroke-linejoin="round"/>
<path d="M147.5 63C158.27 63 167 54.9411 167 45C167 35.0589 158.27 27 147.5 27C136.73 27 128 35.0589 128 45C128 54.9411 136.73 63 147.5 63Z" stroke="#799A84" stroke-width="4" stroke-linecap="round" stroke-linejoin="round"/>
</svg>
